<svg width="82" height="590" viewBox="0 0 82 590" fill="none" xmlns="http://www.w3.org/2000/svg">
<path d="M26.8638 575.695C26.816 575.609 26.741 575.392 26.741 575.339V575.298H29.3831H32.0253L32.0448 575.389C32.0842 575.572 32.0838 575.612 32.0417 575.686L32.0016 575.754H29.4522H26.9028L26.8643 575.686L26.8638 575.695Z" fill="#F7F7F7"/>
<path d="M32.7709 575.664C32.726 575.575 32.648 575.353 32.648 575.314C32.648 575.298 33.7809 575.298 35.371 575.298H38.094L38.0831 575.345C38.0575 575.454 38.0154 575.574 37.9719 575.661L37.9256 575.753H35.3734H32.8211L32.771 575.653L32.7709 575.664Z" fill="#F7F7F7"/>
<path d="M38.5553 575.87C38.5553 575.87 38.5734 575.809 38.5955 575.753C38.6318 575.661 38.673 575.507 38.7023 575.354L38.7132 575.298H40.0798C41.3666 575.298 41.4469 575.298 41.4549 575.328C41.4596 575.345 41.469 575.393 41.4754 575.435C41.4816 575.477 41.5134 575.593 41.5455 575.692C41.5776 575.79 41.6038 575.873 41.6038 575.877C41.6038 575.877 40.9179 575.877 40.0796 575.877C39.2413 575.877 38.5555 575.877 38.5555 575.861L38.5553 575.87Z" fill="#F7F7F7"/>
<path d="M42.1911 575.664C42.1462 575.575 42.0683 575.353 42.0683 575.314C42.0683 575.298 43.2003 575.298 44.7893 575.298C46.8177 575.298 47.5104 575.298 47.5104 575.318C47.5104 575.362 47.4387 575.571 47.3935 575.66L47.3455 575.755H44.7932H42.2409L42.1909 575.656L42.1911 575.664Z" fill="#F7F7F7"/>
<path d="M48.1296 575.708C48.077 575.622 48.0738 575.591 48.1031 575.448C48.1187 575.377 48.1302 575.313 48.1302 575.308C48.1302 575.308 49.3238 575.292 50.7827 575.292H53.4353L53.4243 575.339C53.4021 575.434 53.3453 575.592 53.3042 575.674L53.2619 575.756H50.7132H48.1643L48.1297 575.7L48.1296 575.708Z" fill="#F7F7F7"/>
<path d="M25.5657 568.078L54.5072 568.126L54.5228 573.23L53.4352 575.959L26.6752 575.876L25.5883 573.145L25.5657 568.078Z" fill="url(#paint0_linear_7_2454)"/>
<path d="M32.2339 580.089C31.9343 579.347 31.5388 578.483 31.1444 577.71L30.991 577.409L31.0545 577.291C31.1653 577.085 31.4199 576.638 31.5735 576.38L31.6282 576.29H31.9367C32.1063 576.29 32.4467 576.29 32.6931 576.29H33.141L33.2002 576.388C33.3321 576.608 33.671 577.203 33.752 577.357L33.7797 577.41L33.6996 577.564C33.2695 578.391 32.8389 579.329 32.4928 580.192L32.4346 580.337H32.3841H32.3337L32.2342 580.09L32.2339 580.089Z" fill="black"/>
<path d="M47.5202 579.854C47.2206 579.112 46.8251 578.248 46.4307 577.475L46.2773 577.174L46.3407 577.056C46.4515 576.85 46.7061 576.403 46.8598 576.145L46.9145 576.055H47.223C47.3926 576.055 47.733 576.055 47.9793 576.055H48.4273L48.4865 576.153C48.6184 576.373 48.9573 576.968 49.0382 577.122L49.066 577.175L48.9859 577.329C48.5558 578.156 48.1252 579.093 47.7791 579.957L47.7209 580.102H47.6704H47.6199L47.5204 579.855L47.5202 579.854Z" fill="black"/>
<path d="M38.3567 579.011C38.4808 578.768 38.7128 578.335 38.8721 578.049L39.1617 577.53L38.8205 576.926L38.4794 576.322H37.8932C37.3931 576.322 37.307 576.304 37.307 576.258C37.307 576.206 37.2587 576.197 37.0537 576.206C36.814 576.223 36.796 576.227 36.717 576.364L36.6334 576.509L37.0724 577.352C37.3138 577.816 37.6387 578.478 37.7945 578.822C37.9504 579.167 38.0897 579.45 38.1043 579.451C38.1184 579.452 38.2325 579.253 38.3566 579.01L38.3567 579.011Z" fill="black"/>
<path d="M41.8926 578.981C41.7685 578.737 41.5365 578.304 41.3772 578.019L41.0876 577.5L41.4288 576.896L41.7699 576.291H42.3561C42.8562 576.291 42.9423 576.274 42.9423 576.227C42.9423 576.176 42.9906 576.167 43.1955 576.176C43.4352 576.193 43.4533 576.196 43.5323 576.334L43.6159 576.479L43.1769 577.322C42.9355 577.786 42.6105 578.447 42.4547 578.792C42.2988 579.137 42.1595 579.42 42.1449 579.421C42.1309 579.422 42.0168 579.223 41.8926 578.979V578.981Z" fill="black"/>
<path d="M36.421 585.625C36.421 585.604 36.5499 585.03 36.5681 584.968C36.8383 581.462 37.1186 582.19 38.2261 580.062C38.2261 579.954 38.9805 578.429 39.3992 577.691L39.6128 577.314V576.825V576.337H40.136H40.6593V576.832V577.327L40.8835 577.723C41.1182 578.137 41.766 579.41 41.9162 579.753L42.0037 579.952C43.3785 583.695 42.3444 580.409 43.7593 585.242C43.7953 585.405 43.8248 585.561 43.8248 585.59C43.8248 585.641 43.8185 585.641 40.1227 585.641C38.0866 585.641 36.4207 585.642 36.4207 585.624L36.421 585.625Z" fill="black"/>
<path d="M45.5839 576.067H43.9973" stroke="black" stroke-width="0.4"/>
<path d="M28.582 584.353H36.2379" stroke="black" stroke-width="0.4"/>
<path d="M31.6166 576.067H33.2032" stroke="black" stroke-width="0.4"/>
<path d="M33.8894 577.355C33.6723 576.92 33.4435 576.49 33.203 576.067" stroke="black" stroke-width="0.4"/>
<path d="M31.6167 576.067C31.3762 576.49 31.1473 576.92 30.9303 577.355" stroke="black" stroke-width="0.4"/>
<path d="M36.8883 576.067H38.0794" stroke="black" stroke-width="0.4"/>
<path d="M39.2392 577.514C39.0195 577.065 38.7874 576.623 38.543 576.188" stroke="black" stroke-width="0.4"/>
<path d="M36.8886 576.067C36.7646 576.285 36.6437 576.505 36.5259 576.727" stroke="black" stroke-width="0.4"/>
<path d="M51.5784 584.353H43.9225" stroke="black" stroke-width="0.4"/>
<path d="M48.5437 576.067H46.957" stroke="black" stroke-width="0.4"/>
<path d="M46.9572 576.067C46.7167 576.49 46.4878 576.92 46.2708 577.355" stroke="black" stroke-width="0.4"/>
<path d="M49.2296 577.355C49.0126 576.92 48.7837 576.49 48.5432 576.067" stroke="black" stroke-width="0.4"/>
<path d="M43.2717 576.067H42.0806" stroke="black" stroke-width="0.4"/>
<path d="M38.0794 576.066C38.3148 575.761 38.4342 575.383 38.4163 574.999" stroke="black" stroke-width="0.4"/>
<path d="M32.6597 576.067H38.0795" stroke="black" stroke-width="0.4"/>
<path d="M41.7436 574.999C41.7257 575.383 41.8451 575.761 42.0804 576.066" stroke="black" stroke-width="0.4"/>
<path d="M47.5003 576.066C47.7357 575.761 47.8551 575.383 47.8372 574.999" stroke="black" stroke-width="0.4"/>
<path d="M38.543 576.188H41.6165" stroke="black" stroke-width="0.4"/>
<path d="M37.2854 576.067C37.3119 576.108 37.3402 576.149 37.3704 576.188" stroke="black" stroke-width="0.4"/>
<path d="M42.7897 576.186C42.82 576.147 42.8483 576.107 42.8748 576.065" stroke="black" stroke-width="0.4"/>
<path d="M37.37 576.188H42.7899" stroke="black" stroke-width="0.4"/>
<path d="M41.6943 576.188C41.4498 576.623 41.2176 577.065 40.9979 577.514" stroke="black" stroke-width="0.4"/>
<path d="M41.6943 576.188C41.4498 576.623 41.2176 577.065 40.9979 577.514" stroke="black" stroke-width="0.4"/>
<path d="M43.6736 576.654C43.5681 576.457 43.4601 576.261 43.3497 576.067" stroke="black" stroke-width="0.4"/>
<path d="M36.5669 584.353C36.4642 584.782 36.3722 585.214 36.2908 585.648H43.9467C43.8653 585.214 43.7733 584.782 43.6706 584.353" stroke="black" stroke-width="0.4"/>
<path d="M38.0021 580.025C38.3934 579.113 38.8352 578.224 39.3253 577.361V576.188" stroke="black" stroke-width="0.4"/>
<path d="M40.9118 576.188V577.361C41.3845 578.193 41.8123 579.05 42.1933 579.928" stroke="black" stroke-width="0.4"/>
<path d="M32.4097 580.964C31.8532 579.263 31.1274 577.623 30.2435 576.067H28.6568C27.1937 578.642 26.1683 581.442 25.6223 584.354H33.2781" fill="black"/>
<path d="M32.4097 580.964C31.8532 579.263 31.1274 577.623 30.2435 576.067H28.6568C27.1937 578.642 26.1683 581.442 25.6223 584.354H33.2781" stroke="black" stroke-width="0.4"/>
<path d="M47.7502 575.604C47.8078 575.771 47.8922 575.927 47.9999 576.066H53.4197C53.655 575.761 53.7745 575.383 53.7566 574.999" stroke="black" stroke-width="0.4"/>
<path d="M46.8814 584.354H54.5373C53.9913 581.442 52.9659 578.642 51.5027 576.067H49.9161C49.0321 577.623 48.3064 579.263 47.7499 580.964" fill="black"/>
<path d="M46.8814 584.354H54.5373C53.9913 581.442 52.9659 578.642 51.5027 576.067H49.9161C49.0321 577.623 48.3064 579.263 47.7499 580.964" stroke="black" stroke-width="0.4"/>
<path d="M34.5764 576.067C33.1133 578.642 32.0879 581.442 31.5418 584.354H39.1977C38.6517 581.442 37.6261 578.642 36.163 576.067H34.5764Z" fill="black" stroke="black" stroke-width="0.4"/>
<path d="M54.6127 559.695V572.648C54.5743 573.486 54.311 574.298 53.8504 574.999H40.0801H26.3099C25.8493 574.298 25.5859 573.486 25.5475 572.648V559.695" stroke="black" stroke-width="0.4"/>
<path d="M45.584 576.067C47.0472 578.642 48.0726 581.442 48.6186 584.354H40.9627C41.5088 581.442 42.5343 578.642 43.9974 576.067" fill="black"/>
<path d="M45.584 576.067C47.0472 578.642 48.0726 581.442 48.6186 584.354H40.9627C41.5088 581.442 42.5343 578.642 43.9974 576.067" stroke="black" stroke-width="0.4"/>
<path d="M42.0806 576.067H47.5005" stroke="black" stroke-width="0.4"/>
<path d="M26.404 574.999C26.3861 575.383 26.5056 575.761 26.7409 576.066H32.1607C32.2684 575.927 32.3528 575.771 32.4104 575.604" stroke="black" stroke-width="0.4"/>
<path d="M32.3227 574.999C32.3048 575.383 32.4243 575.761 32.6596 576.066" stroke="black" stroke-width="0.4"/>
<path d="M52.8152 579.202C52.7673 579.116 52.6924 578.899 52.6924 578.846V578.805H55.3345H57.9767L57.9962 578.896C58.0356 579.079 58.0351 579.12 57.993 579.193L57.953 579.261H55.4035H52.8542L52.8157 579.193L52.8152 579.202Z" fill="#F7F7F7"/>
<path d="M58.7224 579.171C58.6776 579.082 58.5996 578.86 58.5996 578.821C58.5996 578.805 59.7325 578.805 61.3226 578.805H64.0456L64.0346 578.852C64.0091 578.961 63.967 579.081 63.9235 579.168L63.8772 579.26H61.325H58.7727L58.7226 579.16L58.7224 579.171Z" fill="#F7F7F7"/>
<path d="M64.5067 579.377C64.5067 579.377 64.5248 579.317 64.5469 579.26C64.5832 579.168 64.6244 579.014 64.6537 578.861L64.6646 578.805H66.0312C67.318 578.805 67.3983 578.805 67.4063 578.835C67.411 578.852 67.4204 578.9 67.4268 578.942C67.433 578.984 67.4648 579.1 67.4969 579.199C67.529 579.297 67.5552 579.38 67.5552 579.384C67.5552 579.384 66.8693 579.384 66.031 579.384C65.1927 579.384 64.5069 579.384 64.5069 579.368L64.5067 579.377Z" fill="#F7F7F7"/>
<path d="M68.1425 579.171C68.0976 579.082 68.0197 578.86 68.0197 578.821C68.0197 578.805 69.1517 578.805 70.7407 578.805C72.7691 578.805 73.4618 578.805 73.4618 578.825C73.4618 578.869 73.3901 579.078 73.3449 579.167L73.2968 579.263H70.7446H68.1923L68.1423 579.163L68.1425 579.171Z" fill="#F7F7F7"/>
<path d="M74.0811 579.215C74.0286 579.129 74.0254 579.098 74.0547 578.955C74.0703 578.884 74.0818 578.82 74.0818 578.815C74.0818 578.815 75.2754 578.8 76.7343 578.8H79.3869L79.3759 578.846C79.3536 578.941 79.2969 579.099 79.2558 579.181L79.2135 579.263H76.6647H74.1159L74.0812 579.207L74.0811 579.215Z" fill="#F7F7F7"/>
<path d="M51.517 571.585L80.4586 571.633L80.4742 576.737L79.3866 579.466L52.6266 579.384L51.5397 576.652L51.517 571.585Z" fill="url(#paint1_linear_7_2454)"/>
<path d="M58.186 583.597C57.8864 582.854 57.4908 581.991 57.0964 581.217L56.943 580.916L57.0065 580.798C57.1173 580.592 57.3719 580.145 57.5256 579.887L57.5803 579.797H57.8887C58.0583 579.797 58.3988 579.797 58.6451 579.797H59.093L59.1523 579.895C59.2841 580.115 59.623 580.71 59.704 580.864L59.7317 580.917L59.6516 581.072C59.2216 581.898 58.791 582.836 58.4448 583.699L58.3867 583.844H58.3361H58.2857L58.1862 583.597L58.186 583.597Z" fill="black"/>
<path d="M73.4722 583.361C73.1726 582.619 72.7772 581.756 72.3827 580.982L72.2293 580.681L72.2927 580.563C72.4036 580.357 72.6582 579.91 72.8118 579.652L72.8665 579.562H73.175C73.3446 579.562 73.685 579.562 73.9314 579.562H74.3793L74.4385 579.66C74.5704 579.88 74.9093 580.475 74.9903 580.629L75.018 580.682L74.9379 580.837C74.5078 581.663 74.0773 582.601 73.7311 583.464L73.6729 583.609H73.6225H73.5719L73.4725 583.362L73.4722 583.361Z" fill="black"/>
<path d="M64.3087 582.518C64.4328 582.275 64.6648 581.842 64.8241 581.556L65.1137 581.037L64.7726 580.433L64.4314 579.829H63.8452C63.3451 579.829 63.2591 579.812 63.2591 579.765C63.2591 579.713 63.2107 579.704 63.0057 579.713C62.7661 579.731 62.748 579.734 62.669 579.871L62.5855 580.016L63.0244 580.86C63.2658 581.323 63.5908 581.985 63.7465 582.33C63.9025 582.675 64.0417 582.957 64.0564 582.958C64.0704 582.959 64.1845 582.76 64.3087 582.517L64.3087 582.518Z" fill="black"/>
<path d="M67.8446 582.488C67.7206 582.244 67.4885 581.811 67.3293 581.526L67.0396 581.007L67.3808 580.403L67.7219 579.799H68.3081C68.8082 579.799 68.8943 579.781 68.8943 579.735C68.8943 579.683 68.9426 579.674 69.1476 579.683C69.3872 579.7 69.4053 579.704 69.4843 579.841L69.5679 579.986L69.1289 580.829C68.8875 581.293 68.5625 581.955 68.4068 582.299C68.2509 582.644 68.1116 582.927 68.0969 582.928C68.0829 582.929 67.9688 582.73 67.8446 582.486V582.488Z" fill="black"/>
<path d="M62.373 589.132C62.373 589.111 62.5019 588.537 62.5201 588.475C62.7903 584.969 63.0706 585.697 64.1781 583.569C64.1781 583.462 64.9325 581.936 65.3512 581.198L65.5648 580.821V580.333V579.844H66.0881H66.6113V580.339V580.834L66.8356 581.23C67.0702 581.644 67.718 582.917 67.8683 583.26L67.9557 583.459C69.3306 587.202 68.2964 583.916 69.7113 588.749C69.7473 588.912 69.7768 589.069 69.7768 589.097C69.7768 589.149 69.7706 589.149 66.0747 589.149C64.0386 589.149 62.3727 589.149 62.3727 589.132L62.373 589.132Z" fill="black"/>
<path d="M71.5353 579.574H69.9486" stroke="black" stroke-width="0.4"/>
<path d="M54.5334 587.86H62.1893" stroke="black" stroke-width="0.4"/>
<path d="M57.5679 579.574H59.1546" stroke="black" stroke-width="0.4"/>
<path d="M59.8416 580.863C59.6246 580.427 59.3957 579.997 59.1552 579.574" stroke="black" stroke-width="0.4"/>
<path d="M57.5681 579.574C57.3276 579.997 57.0987 580.427 56.8817 580.863" stroke="black" stroke-width="0.4"/>
<path d="M62.8399 579.574H64.031" stroke="black" stroke-width="0.4"/>
<path d="M65.1914 581.021C64.9718 580.572 64.7396 580.13 64.4952 579.695" stroke="black" stroke-width="0.4"/>
<path d="M62.8402 579.574C62.7162 579.792 62.5953 580.012 62.4774 580.234" stroke="black" stroke-width="0.4"/>
<path d="M77.5298 587.86H69.8739" stroke="black" stroke-width="0.4"/>
<path d="M74.4951 579.574H72.9084" stroke="black" stroke-width="0.4"/>
<path d="M72.9086 579.574C72.6681 579.997 72.4392 580.427 72.2222 580.863" stroke="black" stroke-width="0.4"/>
<path d="M75.1812 580.863C74.9642 580.427 74.7353 579.997 74.4948 579.574" stroke="black" stroke-width="0.4"/>
<path d="M69.2231 579.574H68.032" stroke="black" stroke-width="0.4"/>
<path d="M64.0308 579.573C64.2661 579.269 64.3856 578.89 64.3677 578.506" stroke="black" stroke-width="0.4"/>
<path d="M58.6111 579.574H64.0309" stroke="black" stroke-width="0.4"/>
<path d="M67.6959 578.506C67.678 578.89 67.7973 579.269 68.0327 579.573" stroke="black" stroke-width="0.4"/>
<path d="M73.4525 579.573C73.6879 579.269 73.8073 578.89 73.7894 578.506" stroke="black" stroke-width="0.4"/>
<path d="M64.4952 579.695H67.5688" stroke="black" stroke-width="0.4"/>
<path d="M63.237 579.574C63.2635 579.616 63.2918 579.656 63.322 579.695" stroke="black" stroke-width="0.4"/>
<path d="M68.7413 579.694C68.7716 579.655 68.7999 579.615 68.8264 579.573" stroke="black" stroke-width="0.4"/>
<path d="M63.3214 579.695H68.7413" stroke="black" stroke-width="0.4"/>
<path d="M67.6459 579.695C67.4014 580.13 67.1692 580.572 66.9495 581.021" stroke="black" stroke-width="0.4"/>
<path d="M67.6459 579.695C67.4014 580.13 67.1692 580.572 66.9495 581.021" stroke="black" stroke-width="0.4"/>
<path d="M69.625 580.161C69.5195 579.964 69.4115 579.768 69.301 579.574" stroke="black" stroke-width="0.4"/>
<path d="M62.5183 587.86C62.4156 588.29 62.3236 588.721 62.2422 589.155H69.8981C69.8167 588.721 69.7247 588.29 69.622 587.86" stroke="black" stroke-width="0.4"/>
<path d="M63.9535 583.532C64.3448 582.621 64.7865 581.731 65.2767 580.868V579.695" stroke="black" stroke-width="0.4"/>
<path d="M66.864 579.695V580.868C67.3368 581.701 67.7646 582.557 68.1455 583.435" stroke="black" stroke-width="0.4"/>
<path d="M58.3619 584.471C57.8054 582.77 57.0797 581.13 56.1957 579.574H54.6091C53.1459 582.149 52.1205 584.949 51.5745 587.861H59.2304" fill="black"/>
<path d="M58.3619 584.471C57.8054 582.77 57.0797 581.13 56.1957 579.574H54.6091C53.1459 582.149 52.1205 584.949 51.5745 587.861H59.2304" stroke="black" stroke-width="0.4"/>
<path d="M73.7016 579.111C73.7592 579.278 73.8435 579.434 73.9513 579.573H79.3711C79.6064 579.269 79.7258 578.89 79.708 578.506" stroke="black" stroke-width="0.4"/>
<path d="M72.8337 587.861H80.4895C79.9435 584.949 78.9181 582.149 77.455 579.574H75.8683C74.9844 581.13 74.2586 582.77 73.7021 584.471" fill="black"/>
<path d="M72.8337 587.861H80.4895C79.9435 584.949 78.9181 582.149 77.455 579.574H75.8683C74.9844 581.13 74.2586 582.77 73.7021 584.471" stroke="black" stroke-width="0.4"/>
<path d="M60.5278 579.574C59.0647 582.149 58.0392 584.949 57.4932 587.861H65.1491C64.603 584.949 63.5775 582.149 62.1144 579.574H60.5278Z" fill="black" stroke="black" stroke-width="0.4"/>
<path d="M77.0992 563.202L79.802 569.514V576.155C79.7636 576.993 80.2626 577.805 79.802 578.507H66.0317H52.2615C51.8009 577.805 51.5375 576.993 51.4991 576.155V563.202" stroke="black" stroke-width="0.4"/>
<path d="M71.5354 579.574C72.9985 582.149 74.0239 584.949 74.57 587.861H66.9141C67.4601 584.949 68.4857 582.149 69.9488 579.574" fill="black"/>
<path d="M71.5354 579.574C72.9985 582.149 74.0239 584.949 74.57 587.861H66.9141C67.4601 584.949 68.4857 582.149 69.9488 579.574" stroke="black" stroke-width="0.4"/>
<path d="M68.032 579.574H73.4519" stroke="black" stroke-width="0.4"/>
<path d="M52.3554 578.506C52.3375 578.89 52.4569 579.269 52.6923 579.573H58.1121C58.2198 579.434 58.3042 579.278 58.3617 579.111" stroke="black" stroke-width="0.4"/>
<path d="M58.2741 578.506C58.2562 578.89 58.3756 579.269 58.611 579.573" stroke="black" stroke-width="0.4"/>
<path d="M28.6715 579.202C28.7193 579.116 28.7943 578.899 28.7943 578.846V578.805H26.1524H23.5104L23.4909 578.896C23.4515 579.079 23.452 579.12 23.494 579.193L23.5341 579.261H26.0833H28.6325L28.671 579.193L28.6715 579.202Z" fill="#F7F7F7"/>
<path d="M22.7651 579.171C22.81 579.082 22.8879 578.86 22.8879 578.821C22.8879 578.805 21.7551 578.805 20.1651 578.805H17.4424L17.4533 578.852C17.4789 578.961 17.521 579.081 17.5644 579.168L17.6108 579.26H20.1628H22.7149L22.7649 579.16L22.7651 579.171Z" fill="#F7F7F7"/>
<path d="M16.9815 579.377C16.9815 579.377 16.9634 579.317 16.9413 579.26C16.9049 579.168 16.8638 579.014 16.8345 578.861L16.8236 578.805H15.4571C14.1704 578.805 14.0901 578.805 14.0821 578.835C14.0774 578.852 14.068 578.9 14.0616 578.942C14.0554 578.984 14.0236 579.1 13.9915 579.199C13.9594 579.297 13.9332 579.38 13.9332 579.384C13.9332 579.384 14.6191 579.384 15.4573 579.384C16.2955 579.384 16.9813 579.384 16.9813 579.368L16.9815 579.377Z" fill="#F7F7F7"/>
<path d="M13.3459 579.171C13.3908 579.082 13.4687 578.86 13.4687 578.821C13.4687 578.805 12.3367 578.805 10.7479 578.805C8.71964 578.805 8.02702 578.805 8.02702 578.825C8.02702 578.869 8.09873 579.078 8.14393 579.167L8.19198 579.263H10.744H13.2961L13.3461 579.163L13.3459 579.171Z" fill="#F7F7F7"/>
<path d="M7.40723 579.215C7.45976 579.129 7.46298 579.098 7.43368 578.955C7.41809 578.884 7.40657 578.82 7.40657 578.815C7.40657 578.815 6.21307 578.8 4.7543 578.8H2.10193L2.11287 578.846C2.13516 578.941 2.19188 579.099 2.23303 579.181L2.27526 579.263H4.82384H7.37251L7.40714 579.207L7.40723 579.215Z" fill="#F7F7F7"/>
<path d="M29.9696 571.585L1.0304 571.633L1.0148 576.737L2.10234 579.466L28.8602 579.384L29.947 576.652L29.9696 571.585Z" fill="url(#paint2_linear_7_2454)"/>
<path d="M23.301 583.597C23.6006 582.854 23.9961 581.991 24.3905 581.217L24.5438 580.916L24.4804 580.798C24.3696 580.592 24.115 580.145 23.9613 579.887L23.9066 579.797H23.5982C23.4287 579.797 23.0882 579.797 22.8419 579.797H22.394L22.3348 579.895C22.2029 580.115 21.864 580.71 21.7831 580.864L21.7553 580.917L21.8354 581.072C22.2655 581.898 22.696 582.836 23.0422 583.699L23.1003 583.844H23.1508H23.2013L23.3008 583.597L23.301 583.597Z" fill="#333333"/>
<path d="M8.01648 583.361C8.31606 582.619 8.71149 581.756 9.10592 580.982L9.25932 580.681L9.19587 580.563C9.08505 580.357 8.83048 579.91 8.67683 579.652L8.62213 579.562H8.31367C8.14409 579.562 7.8037 579.562 7.55737 579.562H7.10949L7.05027 579.66C6.91841 579.88 6.57953 580.475 6.49856 580.629L6.47083 580.682L6.55093 580.837C6.98097 581.663 7.41148 582.601 7.75762 583.464L7.8158 583.609H7.86626H7.91678L8.01624 583.362L8.01648 583.361Z" fill="#333333"/>
<path d="M17.179 582.518C17.0549 582.274 16.8229 581.841 16.6636 581.555L16.374 581.036L16.7151 580.432L17.0563 579.828H17.6424C18.1425 579.828 18.2285 579.811 18.2285 579.764C18.2285 579.713 18.2769 579.703 18.4818 579.713C18.7215 579.73 18.7395 579.733 18.8185 579.87L18.9021 580.015L18.4632 580.859C18.2218 581.323 17.8969 581.984 17.7411 582.329C17.5852 582.674 17.4459 582.957 17.4313 582.957C17.4173 582.958 17.3032 582.759 17.179 582.516L17.179 582.518Z" fill="#333333"/>
<path d="M13.6432 582.487C13.7672 582.243 13.9992 581.81 14.1585 581.525L14.4481 581.006L14.107 580.402L13.7659 579.798H13.1797C12.6797 579.798 12.5936 579.781 12.5936 579.734C12.5936 579.682 12.5453 579.673 12.3403 579.682C12.1007 579.7 12.0826 579.703 12.0036 579.84L11.92 579.985L12.359 580.828C12.6004 581.292 12.9253 581.954 13.0811 582.299C13.237 582.643 13.3763 582.926 13.3909 582.927C13.4049 582.928 13.519 582.729 13.6432 582.486V582.487Z" fill="#333333"/>
<path d="M19.1147 589.132C19.1147 589.111 18.9858 588.537 18.9676 588.475C18.6974 584.969 18.4172 585.697 17.3097 583.569C17.3097 583.462 16.5554 581.936 16.1368 581.198L15.9232 580.821V580.333V579.844H15.4H14.8767V580.339V580.834L14.6525 581.23C14.4179 581.644 13.7701 582.917 13.6199 583.26L13.5325 583.459C12.1577 587.202 13.1918 583.916 11.777 588.749C11.741 588.912 11.7115 589.069 11.7115 589.097C11.7115 589.149 11.7178 589.149 15.4133 589.149C17.4493 589.149 19.1151 589.149 19.1151 589.132L19.1147 589.132Z" fill="#333333"/>
<path d="M9.95303 579.574H11.5395" stroke="black" stroke-width="0.4"/>
<path d="M26.953 587.86H19.2978" stroke="black" stroke-width="0.4"/>
<path d="M23.9185 579.574H22.332" stroke="black" stroke-width="0.4"/>
<path d="M21.6459 580.863C21.863 580.427 22.0918 579.997 22.3323 579.574" stroke="black" stroke-width="0.4"/>
<path d="M23.9192 579.574C24.1597 579.997 24.3886 580.427 24.6056 580.863" stroke="black" stroke-width="0.4"/>
<path d="M18.6476 579.574H17.4566" stroke="black" stroke-width="0.4"/>
<path d="M16.2968 581.021C16.5164 580.572 16.7486 580.13 16.993 579.695" stroke="black" stroke-width="0.4"/>
<path d="M18.6473 579.574C18.7713 579.792 18.8923 580.012 19.0101 580.234" stroke="black" stroke-width="0.4"/>
<path d="M3.95903 587.86H11.6143" stroke="black" stroke-width="0.4"/>
<path d="M6.99323 579.574H8.57974" stroke="black" stroke-width="0.4"/>
<path d="M8.57986 579.574C8.82034 579.997 9.0492 580.427 9.26624 580.863" stroke="black" stroke-width="0.4"/>
<path d="M6.3072 580.863C6.52423 580.427 6.7531 579.997 6.99358 579.574" stroke="black" stroke-width="0.4"/>
<path d="M12.2645 579.574H13.4556" stroke="black" stroke-width="0.4"/>
<path d="M17.4565 579.573C17.2212 579.269 17.1018 578.89 17.1197 578.506" stroke="black" stroke-width="0.4"/>
<path d="M22.8764 579.574H17.4571" stroke="black" stroke-width="0.4"/>
<path d="M13.7923 578.506C13.8102 578.89 13.6908 579.269 13.4555 579.573" stroke="black" stroke-width="0.4"/>
<path d="M8.03648 579.573C7.80116 579.269 7.68172 578.89 7.69962 578.506" stroke="black" stroke-width="0.4"/>
<path d="M16.993 579.695H13.9196" stroke="black" stroke-width="0.4"/>
<path d="M18.2506 579.574C18.2241 579.616 18.1957 579.656 18.1655 579.695" stroke="black" stroke-width="0.4"/>
<path d="M12.7462 579.694C12.716 579.655 12.6876 579.615 12.6611 579.573" stroke="black" stroke-width="0.4"/>
<path d="M18.1659 579.695H12.7464" stroke="black" stroke-width="0.4"/>
<path d="M13.8417 579.695C14.0861 580.13 14.3183 580.572 14.538 581.021" stroke="black" stroke-width="0.4"/>
<path d="M13.8417 579.695C14.0861 580.13 14.3183 580.572 14.538 581.021" stroke="black" stroke-width="0.4"/>
<path d="M11.8634 580.161C11.9689 579.964 12.0769 579.768 12.1873 579.574" stroke="black" stroke-width="0.4"/>
<path d="M18.969 587.86C19.0717 588.29 19.1637 588.721 19.2451 589.155H11.5898C11.6712 588.721 11.7632 588.29 11.8659 587.86" stroke="black" stroke-width="0.4"/>
<path d="M17.5338 583.532C17.1425 582.621 16.7008 581.731 16.2108 580.868V579.695" stroke="black" stroke-width="0.4"/>
<path d="M14.6242 579.695V580.868C14.1515 581.701 13.7237 582.557 13.3428 583.435" stroke="black" stroke-width="0.4"/>
<path d="M23.1259 584.471C23.6824 582.77 24.4081 581.13 25.292 579.574H26.8785C28.3415 582.149 29.3668 584.949 29.9128 587.861H22.2576" fill="#333333"/>
<path d="M23.1259 584.471C23.6824 582.77 24.4081 581.13 25.292 579.574H26.8785C28.3415 582.149 29.3668 584.949 29.9128 587.861H22.2576" stroke="black" stroke-width="0.4"/>
<path d="M7.78677 579.111C7.72922 579.278 7.64485 579.434 7.53715 579.573H2.11779C1.88246 579.269 1.76303 578.89 1.78093 578.506" stroke="black" stroke-width="0.4"/>
<path d="M8.65535 587.861H1.00011C1.5461 584.949 2.57143 582.149 4.03443 579.574H5.62094C6.50484 581.13 7.23051 582.77 7.78699 584.471" fill="#333333"/>
<path d="M8.65535 587.861H1.00011C1.5461 584.949 2.57143 582.149 4.03443 579.574H5.62094C6.50484 581.13 7.23051 582.77 7.78699 584.471" stroke="black" stroke-width="0.4"/>
<path d="M20.9598 579.574C22.4228 582.149 23.4481 584.949 23.9941 587.861H16.3389C16.8848 584.949 17.9103 582.149 19.3733 579.574H20.9598Z" fill="#333333" stroke="black" stroke-width="0.4"/>
<path d="M4.38961 563.202L1.68702 569.514V576.155C1.72541 576.993 1.22646 577.805 1.68702 578.507H15.4562H29.2253C29.6859 577.805 29.9492 576.993 29.9876 576.155V563.202" stroke="black" stroke-width="0.4"/>
<path d="M9.95314 579.574C8.49015 582.149 7.46481 584.949 6.91883 587.861H14.5741C14.0281 584.949 13.0027 582.149 11.5397 579.574" fill="#333333"/>
<path d="M9.95314 579.574C8.49015 582.149 7.46481 584.949 6.91883 587.861H14.5741C14.0281 584.949 13.0027 582.149 11.5397 579.574" stroke="black" stroke-width="0.4"/>
<path d="M13.4556 579.574H8.0361" stroke="black" stroke-width="0.4"/>
<path d="M29.131 578.506C29.1489 578.89 29.0295 579.269 28.7942 579.573H23.3748C23.2671 579.434 23.1827 579.278 23.1252 579.111" stroke="black" stroke-width="0.4"/>
<path d="M23.2132 578.506C23.2311 578.89 23.1117 579.269 22.8763 579.573" stroke="black" stroke-width="0.4"/>
<path d="M38.6361 158.128L44.1942 156.935C50.1227 155.672 56.4219 155.321 56.8851 156.163C57.0703 156.514 57.3482 175.107 57.5335 197.56L57.8114 238.466H47.9922H38.173L38.3583 198.332L38.6361 158.128Z" fill="#291F5E" fill-opacity="0.3"/>
<rect x="43.7836" y="238.466" width="14.0274" height="18.9371" fill="#C4C4C4" fill-opacity="0.3"/>
<path d="M24.8466 27.3537L30.4575 9.81936L32.5617 3.85769L40.9781 0.35083L47.2905 1.0522L51.8494 4.90975L57.8111 24.1975V576.528H24.8466V27.3537Z" fill="black"/>
<path d="M39.228 158.127L35.0595 156.935C30.6131 155.672 25.1939 156.093 24.8466 156.935V197.436V217.776V238.434H32.2109H39.5754L39.4364 198.316L39.228 158.127Z" fill="#DDE5F2"/>
<path d="M43.43 158.389L47.5985 157.2C52.0449 155.941 57.464 156.361 57.8114 157.2V197.585V217.867V238.466H50.447H43.0826L43.2216 198.462L43.43 158.389Z" fill="#291F5E"/>
<path d="M16.4299 129.754H42.3807V154.302H26.5998L16.4299 142.028V129.754Z" fill="black"/>
<path d="M66.929 129.754H40.9782V154.302H56.7591L66.929 142.028V129.754Z" fill="black"/>
<path d="M40.7748 133.026V0.303696C40.9867 0.092926 43.8131 -0.258377 45.5089 0.303696C48.9005 1.28734 52.4334 4.23837 53.4933 6.90828C53.8466 7.89192 56.8142 19.2741 60.1352 32.202L66.0704 55.7392V92.3448C66.0704 124.594 66.2117 129.091 67.1302 129.864C68.6847 131.129 68.3314 137.171 66.7063 137.452C65.7878 137.593 65.4345 136.89 65.0812 134.501C64.5866 131.62 62.6788 128.599 62.4668 130.496C62.3962 130.918 62.3256 131.691 62.2549 132.112C62.1843 132.815 59.6405 133.026 52.1508 133.026H40.7748Z" fill="#291F5E"/>
<path d="M40.7769 132.792V0.302979C40.5665 0.0925751 39.1637 -0.258118 37.4805 0.302979C34.1139 1.2849 30.607 4.23077 29.5549 6.89598C29.2042 7.8779 26.2584 19.2401 22.962 32.1454L17.0705 55.6414V92.1828C17.0705 124.376 16.9303 128.865 16.0185 129.636C14.4755 130.899 14.8261 136.93 16.4393 137.211C17.3511 137.351 17.7017 136.65 18.0524 134.265C18.5433 131.389 20.4371 128.374 20.6475 130.267C20.7176 130.688 20.7877 131.46 20.8579 131.881C20.928 132.582 23.453 132.792 30.8875 132.792H40.7769Z" fill="#DDE5F2"/>
<path d="M57.8111 239.869H24.8466V260.209H57.8111V239.869Z" fill="url(#paint3_linear_7_2454)"/>
<path d="M33.3814 284.878H27.3516L27.1281 285.045V290.409H28.7974V288.398L28.9567 288.255H33.3816C34.4989 288.255 35.0227 287.955 35.0227 287.183V285.952C35.0225 285.179 34.4989 284.878 33.3814 284.878ZM33.3814 286.861C33.3814 287.225 33.141 287.3 32.6172 287.3H28.975L28.7972 287.127V285.978L28.9565 285.832H32.6172C33.141 285.832 33.3814 285.907 33.3814 286.272V286.861Z" fill="black"/>
<path d="M29.8894 297.077L31.3258 299.181L31.2462 299.385H28.0697L27.2588 300.383H31.9872L32.3149 300.582L33.0489 301.595H34.9592L30.7721 295.994" fill="black"/>
<path d="M28.9964 325.027V323.538L29.1682 323.389H32.3639V322.441H27.299V326.116H34.7702V325.172H29.1757" fill="black"/>
<path d="M34.8492 320.583H27.2992V321.625H34.8492V320.583Z" fill="black"/>
<path d="M28.9718 309.049H35.0544C34.9607 308.275 34.4807 308.061 33.2632 308.061H28.9071C27.5333 308.061 27.0951 308.329 27.0951 309.368V312.285C27.0951 313.326 27.5333 313.594 28.9071 313.594H33.2632C34.4985 313.594 34.9716 313.362 35.0038 312.56H28.9718L28.7929 312.391V309.161" fill="black"/>
<path d="M33.3159 274.288H28.891L28.7607 274.145V273.198L28.8904 273.098H34.8555L34.937 272.898C34.7338 272.376 34.2077 272.132 33.2306 272.132H29.0869C27.714 272.132 27.2752 272.4 27.2752 273.44V274.051C27.2752 275.092 27.714 275.36 29.0869 275.36H33.502L33.6407 275.482V276.471L33.5277 276.625H28.4775V276.621H27.1547C27.1547 276.621 27.0033 276.697 27.0091 276.732C27.1219 277.459 27.6174 277.665 28.8034 277.665H33.3161C34.6888 277.665 35.1408 277.397 35.1408 276.357V275.595C35.1408 274.556 34.6888 274.288 33.3161 274.288" fill="black"/>
<path d="M29.0561 333.409H26.5724L26.4376 333.665L29.1959 335.676C29.7184 335.373 30.2869 335.067 30.9053 334.764" fill="black"/>
<path d="M31.2812 337.197L33.7055 338.965H36.2196L36.3237 338.73L32.7036 336.081C32.2228 336.434 31.7478 336.806 31.2812 337.197" fill="black"/>
<path d="M28.6865 338.961H26.4393L26.2494 338.664C27.7774 337.189 34.7541 331.644 43.8351 330.939C43.8351 330.939 35.8914 331.821 28.6865 338.961Z" fill="black"/>
<path fill-rule="evenodd" clip-rule="evenodd" d="M52.8313 241.247L54.1063 241.844L54.4535 243.24L53.5542 244.396L51.8819 244.482L50.9317 243.427L51.1709 242.122L51.8497 241.333L52.8313 241.247Z" fill="#1A1A1A"/>
<path fill-rule="evenodd" clip-rule="evenodd" d="M50.0847 244.62L49.2643 244.517L47.2449 247L47.2134 248.449L46.961 249.656L47.2766 250.966L46.9926 252.414L47.1819 253.622L46.961 254.691L47.2766 255.76L46.9926 257.036L47.1188 257.898L47.0242 259.174L48.0339 259.484L48.0022 247.138L50.0847 244.62Z" fill="#1D0D3A"/>
<path fill-rule="evenodd" clip-rule="evenodd" d="M48.003 259.561L57.1508 259.512V247.124L54.4734 243.076L53.3961 244.587L51.9835 244.678L51.407 244.127L50.5466 243.71L50.1004 244.734L48.003 247.124V259.561Z" fill="#291F5E"/>
<path d="M48.0648 247.155V259.415H57.089L48.0666 247.154L50.0959 244.619L50.6915 243.064" stroke="black" stroke-width="0.383082" stroke-linecap="round" stroke-linejoin="round"/>
<path d="M48.073 249.991L55.133 259.38" stroke="black" stroke-width="0.383082" stroke-linecap="round" stroke-linejoin="round"/>
<path d="M53.2711 259.38L48.0648 252.518" stroke="black" stroke-width="0.383082" stroke-linecap="round" stroke-linejoin="round"/>
<path d="M51.5672 259.346L48.0648 255.07" stroke="black" stroke-width="0.383082" stroke-linecap="round" stroke-linejoin="round"/>
<path d="M49.7056 259.415L48.0648 257.345" stroke="black" stroke-width="0.383082" stroke-linecap="round" stroke-linejoin="round"/>
<path d="M57.0891 259.388V247.077L55.3101 244.386" stroke="black" stroke-width="0.383082" stroke-linecap="round" stroke-linejoin="round"/>
<path d="M48.0927 259.415L57.0619 247.124" stroke="black" stroke-width="0.383082" stroke-linecap="round" stroke-linejoin="round"/>
<path d="M57.0966 249.991L50.0366 259.38" stroke="black" stroke-width="0.383082" stroke-linecap="round" stroke-linejoin="round"/>
<path d="M51.8357 259.38L57.0419 252.518" stroke="black" stroke-width="0.383082" stroke-linecap="round" stroke-linejoin="round"/>
<path d="M53.5979 259.345L57.078 255.093" stroke="black" stroke-width="0.383082" stroke-linecap="round" stroke-linejoin="round"/>
<path d="M51.5672 259.346L48.0648 255.07" stroke="black" stroke-width="0.383082" stroke-linecap="round" stroke-linejoin="round"/>
<path d="M55.4276 259.415L57.0682 257.345" stroke="black" stroke-width="0.383082" stroke-linecap="round" stroke-linejoin="round"/>
<path d="M48.0927 257.074L56.2141 245.759" stroke="black" stroke-width="0.383082" stroke-linecap="round" stroke-linejoin="round"/>
<path d="M48.0475 254.732L54.4626 245.59" stroke="black" stroke-width="0.383082" stroke-linecap="round" stroke-linejoin="round"/>
<path d="M57.0842 257.013L49.0857 245.893" stroke="black" stroke-width="0.383082" stroke-linecap="round" stroke-linejoin="round"/>
<path d="M57.0838 254.587L50.8766 245.741" stroke="black" stroke-width="0.383082" stroke-linecap="round" stroke-linejoin="round"/>
<path d="M48.0335 252.139L52.6122 245.609L54.5516 243.247" stroke="black" stroke-width="0.383082" stroke-linecap="round" stroke-linejoin="round"/>
<path d="M57.1214 252.138L52.6208 245.559L50.6695 243.039" stroke="black" stroke-width="0.383082" stroke-linecap="round" stroke-linejoin="round"/>
<path d="M48.0648 249.655L50.873 245.758" stroke="black" stroke-width="0.383082" stroke-linecap="round" stroke-linejoin="round"/>
<path d="M57.0574 249.621L54.47 245.594" stroke="black" stroke-width="0.383082" stroke-linecap="round" stroke-linejoin="round"/>
<path fill-rule="evenodd" clip-rule="evenodd" d="M55.3617 244.473L54.991 244.447L54.4782 245.594L54.6159 244.383L54.5769 243.221L55.3617 244.473Z" fill="#1D0D3A" stroke="black" stroke-width="0.383082" stroke-linecap="round" stroke-linejoin="round"/>
<path fill-rule="evenodd" clip-rule="evenodd" d="M50.0884 244.611L50.3882 244.645L50.8772 245.757L50.7116 244.387L50.6957 243.076L50.0884 244.611Z" fill="#1D0D3A" stroke="black" stroke-width="0.383082" stroke-linecap="round" stroke-linejoin="round"/>
<path fill-rule="evenodd" clip-rule="evenodd" d="M52.5608 243.18V244.289L52.3656 244.308L51.9863 244.673L52.6445 245.551L53.4588 244.759L53.1074 244.338L52.9122 244.308L52.906 243.174L52.5608 243.18Z" fill="#1D0D3A" stroke="black" stroke-width="0.383082" stroke-linecap="round" stroke-linejoin="round"/>
<path d="M51.9522 244.734L50.792 244.856" stroke="black" stroke-width="0.383082" stroke-linecap="round" stroke-linejoin="round"/>
<path d="M53.4804 244.734L54.5737 244.844" stroke="black" stroke-width="0.383082" stroke-linecap="round" stroke-linejoin="round"/>
<path d="M50.1474 244.568L49.264 244.499C49.264 244.499 49.0987 244.986 48.9011 245.189C48.7035 245.391 48.0965 245.62 48.0965 245.62C48.0965 245.62 48.1058 246.044 47.9545 246.292C47.8027 246.54 47.1341 246.93 47.1341 246.93C47.1341 246.93 47.3434 247.768 47.3076 248.206C47.2718 248.644 46.9133 249.482 46.9133 249.482C46.9133 249.482 47.2934 250.361 47.2919 250.81C47.2905 251.259 46.9291 252.051 46.9291 252.051C46.9291 252.051 47.2275 253.014 47.2288 253.465C47.23 253.916 46.9763 254.69 46.9763 254.69C46.9763 254.69 47.3084 255.532 47.2919 255.948C47.2756 256.365 46.9133 257.069 46.9133 257.069C46.9133 257.069 47.2202 257.814 47.213 258.173C47.2052 258.532 46.9133 259.121 46.9133 259.121L48.0333 259.449" stroke="black" stroke-width="0.383082" stroke-linecap="round" stroke-linejoin="round"/>
<path d="M47.15 246.931L47.9862 247.121" stroke="black" stroke-width="0.383082" stroke-linecap="round" stroke-linejoin="round"/>
<path d="M49.0738 245.953L48.9623 248.368" stroke="black" stroke-width="0.383082" stroke-linecap="round" stroke-linejoin="round"/>
<path d="M50.8591 245.856L50.7475 248.124" stroke="black" stroke-width="0.383082" stroke-linecap="round" stroke-linejoin="round"/>
<path d="M54.4512 245.709L54.4289 248.124" stroke="black" stroke-width="0.383082" stroke-linecap="round" stroke-linejoin="round"/>
<path d="M56.2141 245.832V248.271" stroke="black" stroke-width="0.383082" stroke-linecap="round" stroke-linejoin="round"/>
<path fill-rule="evenodd" clip-rule="evenodd" d="M50.2552 243.158L51.0102 243.133L51.132 242.256L51.6434 241.526L52.569 241.258L53.2266 241.16L52.4715 240.6H51.3268L50.5474 241.233L50.2552 242.281V243.158Z" fill="#4D4D4D"/>
<path d="M53.5586 241.343C53.5586 241.343 52.7938 240.761 52.5458 240.689C52.2412 240.599 51.9138 240.543 51.5992 240.585C51.3191 240.622 51.0256 240.712 50.8104 240.896C50.6066 241.069 50.4932 241.334 50.4001 241.585C50.2946 241.87 50.2743 242.18 50.2424 242.482C50.2121 242.768 50.2109 243.344 50.2109 243.344L50.9366 243.999" stroke="black" stroke-width="0.383082" stroke-linecap="round" stroke-linejoin="round"/>
<path d="M50.9998 243.033C50.9998 243.033 51.0177 242.485 51.126 242.24C51.269 241.917 51.4833 241.591 51.7886 241.413C52.0371 241.268 52.3531 241.286 52.6405 241.275C52.9252 241.264 53.2253 241.245 53.4924 241.344C53.7487 241.439 53.9928 241.607 54.1551 241.827C54.2706 241.983 54.2985 242.189 54.3444 242.378C54.4128 242.661 54.4706 243.241 54.4706 243.241" stroke="black" stroke-width="0.383082" stroke-linecap="round" stroke-linejoin="round"/>
<path fill-rule="evenodd" clip-rule="evenodd" d="M29.8672 241.247L28.5922 241.844L28.245 243.24L29.1443 244.396L30.8166 244.482L31.7668 243.427L31.5276 242.122L30.8488 241.333L29.8672 241.247Z" fill="#1A1A1A"/>
<path fill-rule="evenodd" clip-rule="evenodd" d="M32.6138 244.62L33.4342 244.517L35.4536 247L35.4851 248.449L35.7375 249.656L35.4219 250.966L35.7059 252.414L35.5166 253.622L35.7375 254.691L35.4219 255.76L35.7059 257.036L35.5797 257.898L35.6743 259.174L34.6646 259.484L34.6963 247.138L32.6138 244.62Z" fill="#474747"/>
<path fill-rule="evenodd" clip-rule="evenodd" d="M34.6955 259.561L25.5477 259.512V247.124L28.2251 243.076L29.3024 244.587L30.715 244.678L31.2915 244.127L32.1519 243.71L32.5981 244.734L34.6955 247.124V259.561Z" fill="#5B89C0"/>
<path d="M34.6337 247.155V259.415H25.6095L34.6319 247.154L32.6026 244.619L32.007 243.064" stroke="black" stroke-width="0.383082" stroke-linecap="round" stroke-linejoin="round"/>
<path d="M34.6255 249.991L27.5655 259.38" stroke="black" stroke-width="0.383082" stroke-linecap="round" stroke-linejoin="round"/>
<path d="M29.4274 259.38L34.6337 252.518" stroke="black" stroke-width="0.383082" stroke-linecap="round" stroke-linejoin="round"/>
<path d="M31.1313 259.346L34.6337 255.07" stroke="black" stroke-width="0.383082" stroke-linecap="round" stroke-linejoin="round"/>
<path d="M32.9929 259.415L34.6337 257.345" stroke="black" stroke-width="0.383082" stroke-linecap="round" stroke-linejoin="round"/>
<path d="M25.6094 259.388V247.077L27.3885 244.386" stroke="black" stroke-width="0.383082" stroke-linecap="round" stroke-linejoin="round"/>
<path d="M34.6067 259.415L25.6374 247.124" stroke="black" stroke-width="0.383082" stroke-linecap="round" stroke-linejoin="round"/>
<path d="M25.6028 249.991L32.6628 259.38" stroke="black" stroke-width="0.383082" stroke-linecap="round" stroke-linejoin="round"/>
<path d="M30.8628 259.38L25.6566 252.518" stroke="black" stroke-width="0.383082" stroke-linecap="round" stroke-linejoin="round"/>
<path d="M29.1006 259.345L25.6205 255.093" stroke="black" stroke-width="0.383082" stroke-linecap="round" stroke-linejoin="round"/>
<path d="M31.1313 259.346L34.6337 255.07" stroke="black" stroke-width="0.383082" stroke-linecap="round" stroke-linejoin="round"/>
<path d="M27.271 259.415L25.6303 257.345" stroke="black" stroke-width="0.383082" stroke-linecap="round" stroke-linejoin="round"/>
<path d="M34.6067 257.074L26.4853 245.759" stroke="black" stroke-width="0.383082" stroke-linecap="round" stroke-linejoin="round"/>
<path d="M34.651 254.732L28.2359 245.59" stroke="black" stroke-width="0.383082" stroke-linecap="round" stroke-linejoin="round"/>
<path d="M25.6143 257.013L33.6128 245.893" stroke="black" stroke-width="0.383082" stroke-linecap="round" stroke-linejoin="round"/>
<path d="M25.6147 254.587L31.8219 245.741" stroke="black" stroke-width="0.383082" stroke-linecap="round" stroke-linejoin="round"/>
<path d="M34.665 252.139L30.0863 245.609L28.1469 243.247" stroke="black" stroke-width="0.383082" stroke-linecap="round" stroke-linejoin="round"/>
<path d="M25.5771 252.138L30.0777 245.559L32.029 243.039" stroke="black" stroke-width="0.383082" stroke-linecap="round" stroke-linejoin="round"/>
<path d="M34.6337 249.655L31.8255 245.758" stroke="black" stroke-width="0.383082" stroke-linecap="round" stroke-linejoin="round"/>
<path d="M25.6411 249.621L28.2285 245.594" stroke="black" stroke-width="0.383082" stroke-linecap="round" stroke-linejoin="round"/>
<path fill-rule="evenodd" clip-rule="evenodd" d="M27.3368 244.473L27.7075 244.447L28.2203 245.594L28.0826 244.383L28.1216 243.221L27.3368 244.473Z" fill="#474747" stroke="black" stroke-width="0.383082" stroke-linecap="round" stroke-linejoin="round"/>
<path fill-rule="evenodd" clip-rule="evenodd" d="M32.6101 244.611L32.3103 244.645L31.8213 245.757L31.9869 244.387L32.0028 243.076L32.6101 244.611Z" fill="#474747" stroke="black" stroke-width="0.383082" stroke-linecap="round" stroke-linejoin="round"/>
<path fill-rule="evenodd" clip-rule="evenodd" d="M30.1385 243.18V244.289L30.3338 244.308L30.7131 244.673L30.0549 245.551L29.2405 244.759L29.592 244.338L29.7872 244.308L29.7934 243.174L30.1385 243.18Z" fill="#474747" stroke="black" stroke-width="0.383082" stroke-linecap="round" stroke-linejoin="round"/>
<path d="M30.7463 244.734L31.9065 244.856" stroke="black" stroke-width="0.383082" stroke-linecap="round" stroke-linejoin="round"/>
<path d="M29.2181 244.734L28.1248 244.844" stroke="black" stroke-width="0.383082" stroke-linecap="round" stroke-linejoin="round"/>
<path d="M32.5511 244.568L33.4345 244.499C33.4345 244.499 33.5998 244.986 33.7974 245.189C33.995 245.391 34.602 245.62 34.602 245.62C34.602 245.62 34.5927 246.044 34.744 246.292C34.8959 246.54 35.5644 246.93 35.5644 246.93C35.5644 246.93 35.3551 247.768 35.3909 248.206C35.4267 248.644 35.7852 249.482 35.7852 249.482C35.7852 249.482 35.4052 250.361 35.4066 250.81C35.408 251.259 35.7695 252.051 35.7695 252.051C35.7695 252.051 35.471 253.014 35.4698 253.465C35.4685 253.916 35.7222 254.69 35.7222 254.69C35.7222 254.69 35.3902 255.532 35.4066 255.948C35.423 256.365 35.7852 257.069 35.7852 257.069C35.7852 257.069 35.4783 257.814 35.4856 258.173C35.4934 258.532 35.7852 259.121 35.7852 259.121L34.6652 259.449" stroke="black" stroke-width="0.383082" stroke-linecap="round" stroke-linejoin="round"/>
<path d="M35.5485 246.931L34.7123 247.121" stroke="black" stroke-width="0.383082" stroke-linecap="round" stroke-linejoin="round"/>
<path d="M33.6247 245.953L33.7362 248.368" stroke="black" stroke-width="0.383082" stroke-linecap="round" stroke-linejoin="round"/>
<path d="M31.8395 245.856L31.951 248.124" stroke="black" stroke-width="0.383082" stroke-linecap="round" stroke-linejoin="round"/>
<path d="M28.2473 245.709L28.2696 248.124" stroke="black" stroke-width="0.383082" stroke-linecap="round" stroke-linejoin="round"/>
<path d="M26.4851 245.832V248.271" stroke="black" stroke-width="0.383082" stroke-linecap="round" stroke-linejoin="round"/>
<path fill-rule="evenodd" clip-rule="evenodd" d="M32.4442 243.158L31.6892 243.133L31.5674 242.256L31.0559 241.526L30.1304 241.258L29.4728 241.16L30.2278 240.6H31.3725L32.1519 241.233L32.4442 242.281V243.158Z" fill="#4D4D4D"/>
<path d="M29.1399 241.343C29.1399 241.343 29.9047 240.761 30.1527 240.689C30.4573 240.599 30.7847 240.543 31.0993 240.585C31.3794 240.622 31.6729 240.712 31.8881 240.896C32.0919 241.069 32.2053 241.334 32.2984 241.585C32.4039 241.87 32.4242 242.18 32.4561 242.482C32.4864 242.768 32.4876 243.344 32.4876 243.344L31.7619 243.999" stroke="black" stroke-width="0.383082" stroke-linecap="round" stroke-linejoin="round"/>
<path d="M31.6994 243.033C31.6994 243.033 31.6815 242.485 31.5731 242.24C31.4302 241.917 31.2159 241.591 30.9106 241.413C30.6621 241.268 30.3461 241.286 30.0586 241.275C29.7739 241.264 29.4738 241.245 29.2067 241.344C28.9505 241.439 28.7064 241.607 28.5441 241.827C28.4286 241.983 28.4007 242.189 28.3548 242.378C28.2863 242.661 28.2285 243.241 28.2285 243.241" stroke="black" stroke-width="0.383082" stroke-linecap="round" stroke-linejoin="round"/>
<path d="M26.9505 491.661H31.8601L37.4711 575.826H29.756L26.9505 491.661Z" fill="#5E4325"/>
<path d="M55.0054 491.661H50.0958L44.4848 575.826H52.1999L55.0054 491.661Z" fill="#1B0B3C"/>
<path d="M50.7971 491.661H50.0957L44.4847 575.826H45.1861L50.7971 491.661Z" fill="#DDBCCD"/>
<rect x="24.8466" y="373.13" width="12.6247" height="14.7288" fill="#857892" fill-opacity="0.6"/>
<rect x="45.8878" y="373.13" width="12.6247" height="14.7288" fill="#857892" fill-opacity="0.3"/>
<path d="M23.4442 387.858H30.4579H36.7703L41.3292 575.826H37.4717L23.4442 387.858Z" fill="#0E0B28"/>
<path d="M58.1615 387.157H51.1478H44.8355L40.2765 575.125H44.1341L58.1615 387.157Z" fill="#0E0B28" fill-opacity="0.6"/>
<path d="M36.7702 387.858H45.1866L44.4853 575.826H40.6277L36.7702 387.858Z" fill="#2A2A28"/>
<path d="M42.9865 327.497L42.7761 294.554L42.6358 261.612H49.9299C55.4706 261.612 57.2941 261.822 57.5747 262.593C57.7851 263.154 57.9955 267.92 57.9955 273.247C58.0656 278.644 58.2059 284.742 58.4163 286.844C58.6267 288.947 58.9072 300.372 59.1176 312.147C59.328 328.829 59.1878 335.417 58.3462 341.585C57.2941 349.786 57.4344 353.921 59.1878 360.089C63.396 375.439 65.0791 387.144 70.69 439.992C79.5271 524.031 79.6674 525.924 80.5792 551.577C81 564.754 81.2104 576.039 81 576.669C80.7194 577.37 79.6674 577.721 77.914 577.721C74.5475 577.721 52.1041 576.95 52.7353 578.632C52.3846 578.492 52.1743 575.969 52.3145 573.025C53.3666 539.451 54.5589 502.584 54.629 497.817L54.7693 491.86L52.525 491.649L50.2105 491.439L50.6313 487.444C50.8417 485.271 51.1923 480.785 51.4027 477.491C51.6131 474.197 53.0158 453.52 54.5588 431.582C57.2941 393.592 57.5046 387.705 56.4525 386.583C55.7512 385.953 55.8213 383.429 56.4525 383.78C56.8032 383.99 57.0838 382.168 57.0838 379.714C57.1539 376.21 56.9434 375.229 55.8914 374.598C54.8394 373.897 54.6992 373.967 54.9797 374.808C55.3304 375.579 55.12 375.719 54.3485 375.439C53.5068 375.159 53.086 375.579 52.7353 377.051C51.8937 380.976 51.6131 381.467 50.6313 381.467C50.0702 381.467 49.6493 381.747 49.6493 382.168C49.6493 382.518 50 382.869 50.3507 382.869C50.7715 382.869 50.2105 383.99 49.1584 385.322C47.1946 387.775 47.1245 387.845 42.0748 387.705L37.0249 387.565L36.9548 380.135C36.7444 355.323 36.6743 329.81 36.9548 328.688C37.0951 327.777 37.8666 327.497 40.1109 327.497H42.9865Z" fill="#291F5E"/>
<path d="M39.097 327.541L39.3073 294.576L39.4477 261.612H32.1534C26.6125 261.612 24.789 261.822 24.5084 262.593C24.298 263.155 24.0876 267.924 24.0876 273.254C24.0175 278.655 23.8772 284.757 23.6668 286.861C23.4564 288.965 23.1758 300.397 22.9654 312.18C22.755 328.873 22.8953 335.466 23.7369 341.638C24.789 349.844 24.6486 353.982 22.8952 360.154C18.687 375.514 17.0038 387.227 11.3928 440.111C2.55548 524.205 2.41514 526.099 1.50335 551.769C1.08253 564.955 0.872137 576.247 1.08255 576.878C1.3631 577.58 2.41517 577.931 4.1686 577.931C7.53519 577.931 29.9791 577.159 29.3479 578.842C29.6986 578.702 29.909 576.177 29.7687 573.231C28.7166 539.636 27.5243 502.743 27.4541 497.974L27.3139 492.012L29.5583 491.802L31.8728 491.592L31.452 487.594C31.2416 485.419 30.8909 480.931 30.6805 477.634C30.4701 474.338 29.0674 453.647 27.5243 431.694C24.789 393.68 24.5785 387.789 25.6306 386.666C26.332 386.035 26.2618 383.51 25.6306 383.861C25.2799 384.071 24.9993 382.248 24.9993 379.793C24.9292 376.286 25.1397 375.304 26.1917 374.673C27.2438 373.971 27.384 374.042 27.1034 374.883C26.7528 375.655 26.9632 375.795 27.7347 375.514C28.5763 375.234 28.9972 375.655 29.3479 377.128C30.1895 381.055 30.4701 381.546 31.452 381.546C32.0131 381.546 32.4339 381.827 32.4339 382.248C32.4339 382.598 32.0833 382.949 31.7326 382.949C31.3117 382.949 31.8728 384.071 32.9249 385.404C34.8887 387.859 34.9588 387.929 40.0087 387.788L45.0586 387.648L45.1288 380.214C45.3392 355.385 45.4093 329.855 45.1288 328.733C44.9885 327.821 44.217 327.541 41.9726 327.541H39.097Z" fill="#DDE5F2"/>
<path d="M33.9512 279.726H27.4396L27.1983 279.907V285.699H29.0009V283.527L29.173 283.373H33.9515C35.158 283.373 35.7236 283.048 35.7236 282.216V280.885C35.7234 280.051 35.158 279.726 33.9512 279.726ZM33.9512 281.868C33.9512 282.26 33.6916 282.342 33.126 282.342H29.1927L29.0007 282.155V280.914L29.1728 280.757H33.126C33.6916 280.757 33.9512 280.837 33.9512 281.232V281.868Z" fill="black"/>
<path d="M30.1804 292.9L31.7315 295.173L31.6456 295.393H28.2153L27.3396 296.47H32.4457L32.7996 296.686L33.5923 297.779H35.6552L31.1336 291.731" fill="black"/>
<path d="M29.2171 323.082V321.474L29.4026 321.314H32.8536V320.29H27.3841V324.258H35.4522V323.239H29.4108" fill="black"/>
<path d="M35.5376 318.284H27.3843V319.41H35.5376V318.284Z" fill="black"/>
<path d="M29.1896 305.829H35.7581C35.6569 304.993 35.1386 304.762 33.8239 304.762H29.1197C27.6362 304.762 27.1629 305.051 27.1629 306.174V309.324C27.1629 310.448 27.6362 310.737 29.1197 310.737H33.8239C35.1579 310.737 35.6687 310.487 35.7035 309.62H29.1896L28.9964 309.438V305.95" fill="black"/>
<path d="M33.881 268.29H29.1025L28.9618 268.135V267.113L29.1018 267.005H35.5436L35.6316 266.79C35.4121 266.225 34.844 265.962 33.7889 265.962H29.3141C27.8315 265.962 27.3576 266.251 27.3576 267.374V268.034C27.3576 269.158 27.8315 269.448 29.3141 269.448H34.0819L34.2317 269.579V270.648L34.1096 270.814H28.6559V270.809H27.2274C27.2274 270.809 27.064 270.891 27.0702 270.93C27.1921 271.715 27.7271 271.937 29.0079 271.937H33.8811C35.3635 271.937 35.8516 271.648 35.8516 270.524V269.701C35.8516 268.579 35.3635 268.29 33.8811 268.29" fill="black"/>
<path d="M29.2807 332.135H26.5985L26.4529 332.412L29.4316 334.583C29.9958 334.257 30.6098 333.925 31.2776 333.599" fill="black"/>
<path d="M31.6845 336.225L34.3025 338.134H37.0175L37.1299 337.881L33.2206 335.02C32.7014 335.401 32.1884 335.803 31.6846 336.225" fill="black"/>
<path d="M28.8816 338.13H26.4549L26.2498 337.809C27.8999 336.216 35.434 330.229 45.2406 329.467C45.2406 329.467 36.6622 330.419 28.8816 338.13Z" fill="#A7A9AC"/>
<defs>
<linearGradient id="paint0_linear_7_2454" x1="25.5656" y1="572.018" x2="54.5229" y2="572.018" gradientUnits="userSpaceOnUse">
<stop stop-color="#101010"/>
<stop offset="0.499906" stop-color="#282828"/>
<stop offset="1" stop-color="#101010"/>
</linearGradient>
<linearGradient id="paint1_linear_7_2454" x1="51.517" y1="575.526" x2="80.4742" y2="575.526" gradientUnits="userSpaceOnUse">
<stop stop-color="#101010"/>
<stop offset="0.499906" stop-color="#282828"/>
<stop offset="1" stop-color="#101010"/>
</linearGradient>
<linearGradient id="paint2_linear_7_2454" x1="29.9696" y1="575.526" x2="1.01478" y2="575.526" gradientUnits="userSpaceOnUse">
<stop stop-color="#101010"/>
<stop offset="0.499906" stop-color="#282828"/>
<stop offset="1" stop-color="#101010"/>
</linearGradient>
<linearGradient id="paint3_linear_7_2454" x1="24.8466" y1="250.039" x2="57.811" y2="250.039" gradientUnits="userSpaceOnUse">
<stop stop-color="#101010"/>
<stop offset="0.499906" stop-color="#282828"/>
<stop offset="1" stop-color="#101010"/>
</linearGradient>
</defs>
</svg>
